<?xml version="1.0" standalone="no"?>
<!DOCTYPE svg PUBLIC "-//W3C//DTD SVG 20010904//EN"
 "http://www.w3.org/TR/2001/REC-SVG-20010904/DTD/svg10.dtd">
<svg version="1.0" xmlns="http://www.w3.org/2000/svg"
 width="365.000000pt" height="441.000000pt" viewBox="0 0 365.000000 441.000000"
 preserveAspectRatio="xMidYMid meet">

<g transform="translate(0.000000,441.000000) scale(0.100000,-0.100000)"
fill="#000000" stroke="none">
<path d="M1715 4198 c-47 -17 -107 -65 -137 -109 -32 -49 -52 -135 -43 -190 7
-38 6 -40 -27 -51 -63 -22 -194 -94 -255 -140 -119 -92 -173 -175 -181 -277
-3 -42 0 -77 7 -92 11 -21 11 -22 -2 -6 -13 16 -16 12 -30 -40 -17 -64 -35
-152 -39 -198 -2 -24 -15 -38 -63 -71 -331 -228 -556 -585 -626 -992 -18 -107
-20 -152 -16 -282 8 -247 57 -436 164 -641 69 -134 76 -141 99 -97 58 113 198
273 304 347 l61 43 -6 -49 c-3 -26 -12 -102 -20 -168 -29 -238 -105 -873 -105
-879 0 -3 448 -6 995 -6 547 0 995 3 995 6 0 3 -18 159 -40 347 -22 188 -49
421 -60 517 -11 96 -22 183 -24 193 -7 32 21 17 102 -53 95 -83 162 -162 223
-266 24 -41 46 -74 50 -74 8 0 83 134 123 220 39 86 77 207 103 330 25 118 25
418 0 545 -38 191 -122 399 -226 556 -102 153 -274 326 -413 414 -44 28 -46
30 -51 89 -4 34 -16 95 -27 136 -12 41 -25 112 -30 158 -9 92 -34 144 -102
218 -63 69 -214 166 -307 199 l-35 12 -1 84 c0 74 -3 90 -29 137 -34 61 -85
106 -146 127 -48 17 -141 18 -185 3z m771 -906 c-17 -16 -18 -16 -5 5 7 12 15
20 18 17 3 -2 -3 -12 -13 -22z m-1110 -166 c122 -41 246 -59 414 -60 171 0
254 11 381 49 46 15 93 27 103 28 15 2 33 -24 81 -119 34 -67 65 -135 69 -150
4 -16 16 -46 26 -69 10 -22 30 -80 46 -129 l27 -89 18 36 c20 38 41 49 94 49
93 0 147 -84 124 -192 -22 -105 -113 -178 -233 -187 l-63 -6 -33 -83 c-56
-144 -170 -307 -251 -358 l-26 -16 14 52 c20 79 28 297 11 328 -61 114 -524
148 -702 52 -74 -40 -78 -52 -72 -222 3 -80 8 -155 12 -165 11 -31 -49 28
-108 105 -49 64 -158 268 -158 296 0 10 -14 14 -53 14 -157 0 -269 98 -270
235 0 90 46 146 121 147 59 1 80 -10 100 -49 l18 -35 18 60 c10 33 15 66 11
72 -5 8 -4 11 2 7 6 -4 22 25 38 71 15 42 56 134 90 204 35 69 60 130 57 134
-4 4 -1 4 6 0 6 -4 12 -2 12 3 0 14 -5 15 76 -13z m1214 -118 c0 -6 -6 -5 -15
2 -8 7 -15 14 -15 16 0 2 7 1 15 -2 8 -4 15 -11 15 -16z m-57 -373 c-3 -9 -8
-14 -10 -11 -3 3 -2 9 2 15 9 16 15 13 8 -4z m-891 -492 l28 -27 48 17 c26 9
61 17 77 17 17 0 51 -8 77 -17 l48 -17 29 28 29 28 51 -22 c46 -21 51 -25 51
-55 0 -47 -55 -123 -114 -160 -47 -29 -54 -30 -160 -30 -97 0 -117 3 -156 24
-25 13 -53 31 -64 40 -24 22 -52 77 -60 123 -6 35 -4 39 26 58 43 26 56 25 90
-7z m-116 -385 c160 -70 389 -74 525 -9 23 12 43 20 44 18 1 -1 7 -36 13 -77
13 -86 27 -104 94 -114 59 -9 188 -47 188 -56 0 -15 -101 -139 -143 -176 -87
-76 -223 -144 -328 -164 -77 -15 -227 -12 -293 5 -89 23 -204 88 -268 150 -56
55 -138 169 -138 192 0 13 32 23 144 47 37 8 75 21 84 30 10 10 17 41 20 95 2
45 6 81 7 81 1 0 24 -10 51 -22z"/>
<path d="M1395 2924 c-32 -17 -81 -77 -66 -82 5 -2 28 6 50 17 52 27 99 26
156 -1 42 -20 46 -21 61 -6 22 21 12 43 -28 68 -40 24 -128 26 -173 4z"/>
<path d="M2019 2917 c-69 -46 -36 -97 38 -57 49 26 101 25 158 -2 52 -25 64
-20 39 17 -42 64 -168 87 -235 42z"/>
<path d="M1425 2725 c-30 -30 -32 -64 -4 -99 43 -55 129 -23 129 49 0 69 -76
100 -125 50z"/>
<path d="M2049 2731 c-51 -41 -17 -131 50 -131 59 0 93 58 65 111 -22 43 -75
53 -115 20z"/>
</g>
</svg>
