<?xml version="1.0" standalone="no"?>
<!DOCTYPE svg PUBLIC "-//W3C//DTD SVG 20010904//EN"
 "http://www.w3.org/TR/2001/REC-SVG-20010904/DTD/svg10.dtd">
<svg version="1.0" xmlns="http://www.w3.org/2000/svg"
 width="357.000000pt" height="428.000000pt" viewBox="0 0 357.000000 428.000000"
 preserveAspectRatio="xMidYMid meet">

<g transform="translate(0.000000,428.000000) scale(0.100000,-0.100000)"
fill="#000000" stroke="none">
<path d="M1504 4151 c-212 -34 -428 -207 -490 -393 -9 -28 -17 -89 -19 -137
-1 -69 -7 -99 -30 -150 -45 -106 -65 -225 -65 -398 l0 -152 -74 -60 c-104 -85
-196 -188 -281 -316 -157 -234 -239 -482 -252 -761 -13 -289 50 -553 194 -808
l45 -79 -46 -87 c-86 -163 -127 -308 -141 -498 l-7 -92 1446 0 c795 0 1446 3
1446 8 0 4 -5 59 -10 122 -14 161 -49 282 -121 427 l-60 121 39 71 c346 608
238 1347 -267 1829 -41 40 -90 83 -108 95 l-33 22 0 146 c0 165 -17 284 -56
386 -14 37 -25 73 -25 78 0 6 13 48 30 95 34 95 50 228 33 272 l-11 26 -63
-26 c-55 -23 -77 -27 -168 -27 -97 0 -110 2 -173 32 -37 18 -107 59 -156 92
-118 79 -197 118 -286 141 -88 22 -220 32 -291 21z m-291 -829 c130 -62 364
-102 598 -102 220 0 397 33 546 100 36 17 68 30 70 30 2 0 -15 -21 -39 -46
-60 -63 -61 -67 -56 -153 5 -88 30 -144 102 -231 26 -30 53 -69 61 -86 29 -63
48 -160 49 -261 0 -57 3 -103 6 -103 3 0 19 37 36 83 l29 82 40 -2 c79 -5 128
-70 121 -164 -10 -137 -100 -219 -251 -227 l-80 -5 -55 -85 c-31 -49 -96 -127
-149 -180 l-93 -93 3 -132 c2 -73 -1 -178 -5 -234 l-9 -102 -59 -26 c-160 -72
-436 -70 -587 3 l-56 27 -11 115 c-7 63 -9 167 -6 231 l5 116 -94 94 c-57 57
-116 129 -149 181 l-55 87 -61 1 c-115 0 -202 49 -244 137 -41 86 -26 197 32
235 29 18 80 29 95 20 7 -4 24 -41 38 -82 15 -41 30 -78 34 -82 3 -4 6 41 7
100 1 172 26 251 109 352 71 86 99 152 103 241 l4 76 -59 63 c-32 35 -53 61
-48 59 6 -3 41 -20 78 -37z"/>
<path d="M1346 3065 c-42 -15 -105 -70 -93 -81 4 -4 28 1 54 12 65 24 142 23
189 -5 34 -20 38 -21 60 -6 29 19 30 27 6 48 -49 45 -142 59 -216 32z"/>
<path d="M2055 3061 c-22 -10 -47 -26 -55 -36 -13 -15 -12 -19 9 -36 22 -18
24 -18 64 3 56 29 138 28 194 0 50 -26 53 -26 53 -8 0 8 -16 28 -36 44 -64 53
-156 66 -229 33z"/>
<path d="M1378 2830 c-25 -26 -29 -36 -24 -63 9 -45 39 -71 80 -71 61 0 99 58
76 114 -23 55 -87 65 -132 20z"/>
<path d="M2103 2850 c-39 -16 -56 -77 -33 -120 13 -25 65 -41 94 -30 44 16 67
70 50 115 -7 17 -55 45 -76 44 -7 0 -23 -4 -35 -9z"/>
</g>
</svg>
