<?xml version="1.0" standalone="no"?>
<!DOCTYPE svg PUBLIC "-//W3C//DTD SVG 20010904//EN"
 "http://www.w3.org/TR/2001/REC-SVG-20010904/DTD/svg10.dtd">
<svg version="1.0" xmlns="http://www.w3.org/2000/svg"
 width="358.000000pt" height="438.000000pt" viewBox="0 0 358.000000 438.000000"
 preserveAspectRatio="xMidYMid meet">

<g transform="translate(0.000000,438.000000) scale(0.100000,-0.100000)"
fill="#000000" stroke="none">
<path d="M1457 4066 c-60 -25 -153 -95 -198 -149 -14 -18 -52 -73 -83 -124
-31 -51 -68 -101 -82 -112 -13 -10 -67 -40 -118 -65 -116 -56 -167 -109 -196
-204 -11 -35 -20 -74 -20 -87 0 -17 -10 -26 -46 -40 -132 -50 -201 -196 -156
-329 l20 -59 -38 -49 c-76 -95 -101 -232 -63 -343 21 -64 93 -136 158 -160 28
-10 51 -20 53 -21 2 -1 -9 -21 -24 -44 -32 -48 -43 -136 -25 -193 16 -49 87
-126 136 -148 22 -10 57 -19 78 -19 l39 0 -7 -39 c-14 -82 34 -161 117 -195
43 -18 101 -21 129 -6 16 9 25 5 54 -23 19 -18 50 -38 68 -44 50 -15 123 -1
154 30 25 24 27 25 50 10 13 -9 25 -14 27 -12 3 2 7 40 11 84 l7 80 -73 60
c-79 65 -184 196 -238 298 l-35 64 38 33 c58 52 76 96 76 190 0 46 -8 110 -17
147 -17 63 -17 65 3 101 25 43 153 121 199 121 17 1 49 -8 70 -19 49 -25 88
-19 83 12 -5 35 -51 61 -117 66 l-59 4 -5 52 c-7 59 3 115 29 154 26 40 42 49
119 73 60 18 78 30 130 83 34 34 67 77 75 95 l13 33 20 -38 c11 -21 45 -64 77
-95 47 -48 68 -61 126 -78 122 -38 152 -88 146 -237 l-2 -42 -60 -4 c-67 -5
-113 -31 -118 -67 -5 -32 22 -36 78 -12 68 29 94 26 180 -23 55 -32 79 -53 94
-80 18 -37 18 -40 2 -109 -10 -39 -17 -104 -17 -144 0 -85 21 -133 77 -182
l36 -32 -27 -52 c-75 -141 -169 -257 -262 -324 l-65 -48 6 -79 c3 -43 8 -82
11 -85 4 -3 19 2 34 11 28 15 30 15 53 -9 58 -58 172 -46 232 24 19 22 25 24
43 14 30 -16 87 -14 131 5 85 35 135 122 114 198 l-10 36 41 0 c84 0 190 82
215 168 23 77 9 166 -35 214 -19 21 -21 20 42 43 31 12 66 36 96 67 60 63 83
132 77 232 -5 81 -28 139 -81 208 l-36 47 16 38 c55 129 -19 298 -153 349 -39
15 -42 19 -48 62 -9 67 -57 162 -102 201 -21 19 -72 50 -114 69 -109 50 -132
71 -200 182 -69 111 -163 208 -249 254 -102 55 -241 45 -322 -24 l-34 -29 30
-1 c47 0 126 -43 168 -88 35 -40 46 -62 30 -62 -5 0 -44 7 -88 15 -44 8 -109
14 -145 15 -58 0 -93 -4 -219 -27 -32 -6 -33 -5 -21 16 26 50 93 102 152 119
32 9 58 20 58 24 0 4 -13 16 -29 28 -78 55 -188 65 -284 26z m-505 -1448 c93
-101 121 -196 73 -243 -72 -73 -196 26 -197 159 -1 52 10 85 40 119 23 26 32
22 84 -35z m1785 13 c51 -75 14 -229 -63 -266 -44 -21 -97 -13 -119 18 -34 49
-7 133 76 229 30 34 58 58 68 56 8 -2 26 -18 38 -37z m-1760 -460 c0 -84 24
-156 52 -156 26 0 52 60 58 135 5 58 9 70 22 68 24 -5 19 -121 -7 -181 -25
-56 -53 -73 -92 -57 -43 18 -64 71 -68 173 -5 99 1 125 22 108 9 -8 13 -36 13
-90z m1673 -6 c0 -92 -22 -153 -65 -181 -58 -38 -111 32 -122 161 -6 70 -5 75
14 75 18 0 21 -9 26 -71 6 -74 32 -134 58 -134 28 0 49 65 49 151 0 49 5 85
12 92 20 20 28 -6 28 -93z"/>
<path d="M1460 2677 c-40 -20 -56 -58 -41 -95 32 -77 144 -54 144 29 0 53 -57
89 -103 66z"/>
<path d="M2085 2680 c-50 -20 -67 -76 -33 -113 37 -42 72 -45 108 -9 36 36 38
62 8 96 -27 29 -55 38 -83 26z"/>
<path d="M1640 2083 l32 -26 52 16 c66 21 76 21 143 0 l54 -17 27 27 27 27
-183 0 -184 0 32 -27z"/>
<path d="M1245 1475 c-17 -7 -56 -23 -87 -34 -114 -41 -232 -125 -369 -260
-93 -93 -133 -144 -191 -241 -97 -164 -139 -295 -159 -493 -10 -101 -10 -120
2 -128 8 -5 102 -8 209 -8 107 0 198 0 203 0 10 -1 1875 -1 1885 0 4 0 93 0
197 -1 105 -1 197 2 206 5 30 11 8 234 -38 380 -60 190 -154 339 -319 501
-108 107 -224 188 -344 239 -47 20 -93 40 -103 46 -11 6 -21 9 -23 6 -2 -2
-79 -152 -171 -333 -283 -560 -338 -663 -347 -665 -11 -1 -53 79 -323 611
-107 212 -196 386 -197 387 -1 1 -15 -4 -31 -12z"/>
</g>
</svg>
