<?xml version="1.0" standalone="no"?>
<!DOCTYPE svg PUBLIC "-//W3C//DTD SVG 20010904//EN"
 "http://www.w3.org/TR/2001/REC-SVG-20010904/DTD/svg10.dtd">
<svg version="1.0" xmlns="http://www.w3.org/2000/svg"
 width="367.000000pt" height="436.000000pt" viewBox="0 0 367.000000 436.000000"
 preserveAspectRatio="xMidYMid meet">

<g transform="translate(0.000000,436.000000) scale(0.100000,-0.100000)"
fill="#000000" stroke="none">
<path d="M1581 4085 c-145 -32 -263 -115 -316 -222 -18 -38 -51 -79 -95 -120
-37 -35 -82 -85 -100 -113 -71 -111 -107 -305 -96 -520 6 -117 38 -348 55
-392 7 -19 8 -19 24 5 23 36 74 194 92 290 9 45 18 138 21 207 7 168 19 198
112 285 l32 29 17 -24 c58 -82 160 -160 211 -160 32 0 28 10 -23 60 -53 52
-58 70 -12 41 64 -40 184 -81 256 -87 l71 -7 -15 29 c-8 16 -15 39 -15 52 l0
22 39 -20 c87 -44 189 -64 323 -65 69 0 130 3 134 8 4 4 -6 24 -22 45 -49 61
-49 62 -7 60 21 -2 63 1 94 5 54 8 57 7 89 -25 53 -54 67 -98 74 -238 6 -138
26 -262 57 -358 12 -34 18 -70 15 -78 -3 -8 -2 -13 3 -10 5 3 14 -6 19 -22 6
-15 17 -36 25 -46 14 -19 15 -16 26 35 36 168 44 242 45 419 0 211 -14 299
-68 415 -70 150 -226 273 -436 341 -30 10 -84 36 -120 59 -159 101 -339 136
-509 100z"/>
<path d="M1406 3135 c-42 -15 -105 -70 -93 -81 4 -4 36 3 73 15 73 24 113 21
176 -10 35 -18 37 -18 59 0 21 17 22 21 9 36 -41 49 -147 68 -224 40z"/>
<path d="M2120 3134 c-37 -16 -70 -42 -70 -55 0 -5 11 -16 24 -24 22 -15 26
-14 61 6 49 29 133 29 195 1 58 -27 66 -10 17 34 -57 53 -155 69 -227 38z"/>
<path d="M1500 2907 c-30 -15 -45 -54 -36 -91 13 -54 110 -65 136 -16 36 67
-33 142 -100 107z"/>
<path d="M2120 2907 c-47 -24 -52 -104 -8 -128 12 -7 36 -12 52 -11 64 2 91
91 40 131 -31 24 -49 26 -84 8z"/>
<path d="M1610 2316 c0 -2 8 -10 18 -17 15 -13 16 -12 3 4 -13 16 -21 21 -21
13z"/>
<path d="M1800 2186 c0 -8 14 -17 30 -21 39 -8 90 3 90 20 0 10 -9 11 -37 5
-21 -5 -44 -5 -54 1 -24 12 -29 11 -29 -5z"/>
<path d="M2215 1728 c5 -61 3 -84 -10 -112 -42 -89 -231 -206 -344 -214 -113
-8 -292 86 -364 191 -26 38 -27 45 -21 121 5 77 4 80 -11 61 -28 -33 -95 -177
-95 -204 0 -22 -9 -30 -58 -50 -111 -47 -148 -65 -232 -115 -409 -239 -644
-594 -669 -1008 l-6 -108 1436 0 c790 0 1438 2 1440 4 10 11 -11 228 -29 301
-41 160 -119 326 -211 446 -44 57 -172 184 -236 235 -114 91 -340 219 -447
253 -32 11 -38 17 -38 40 0 15 -20 68 -44 117 -65 130 -68 132 -61 42z"/>
</g>
</svg>
