<?xml version="1.0" standalone="no"?>
<!DOCTYPE svg PUBLIC "-//W3C//DTD SVG 20010904//EN"
 "http://www.w3.org/TR/2001/REC-SVG-20010904/DTD/svg10.dtd">
<svg version="1.0" xmlns="http://www.w3.org/2000/svg"
 width="392.000000pt" height="434.000000pt" viewBox="0 0 392.000000 434.000000"
 preserveAspectRatio="xMidYMid meet">

<g transform="translate(0.000000,434.000000) scale(0.100000,-0.100000)"
fill="#000000" stroke="none">
<path d="M1770 4176 c-176 -47 -331 -206 -393 -401 -9 -27 -21 -79 -26 -115
-10 -60 -14 -68 -75 -130 -150 -153 -215 -321 -216 -561 -1 -131 14 -231 50
-338 24 -73 102 -235 131 -272 l19 -24 0 75 c0 88 15 235 31 303 9 37 15 47
27 42 8 -3 48 -11 89 -17 74 -11 82 -15 62 -35 -6 -6 -8 -16 -5 -22 5 -7 21
-4 48 10 54 28 115 28 168 0 40 -21 43 -21 61 -5 12 11 17 25 13 36 -4 15 0
18 24 18 50 0 233 51 325 90 48 21 87 35 86 31 0 -3 -24 -26 -54 -51 -34 -28
-48 -46 -39 -48 24 -6 136 36 184 68 59 39 145 124 185 183 l32 48 26 -63 c63
-160 89 -313 86 -520 0 -71 1 -131 4 -134 11 -11 156 298 172 367 33 147 29
353 -11 506 -40 157 -169 336 -295 410 -22 13 -30 26 -34 62 -32 244 -191 427
-420 486 -70 18 -192 19 -255 1z m290 -300 c41 -21 110 -85 110 -102 0 -9 -10
-9 -42 -1 -57 14 -333 14 -380 0 -29 -9 -38 -9 -38 1 0 20 72 83 120 106 56
26 175 24 230 -4z"/>
<path d="M2211 2780 c-44 -10 -85 -42 -89 -68 -5 -31 34 -37 83 -12 49 25 88
25 144 0 69 -32 81 -23 34 25 -46 46 -115 68 -172 55z"/>
<path d="M1592 2555 c-50 -22 -59 -90 -16 -124 35 -28 69 -26 99 4 64 63 0
154 -83 120z"/>
<path d="M2215 2558 c-47 -27 -59 -79 -27 -117 46 -55 132 -24 132 48 0 58
-59 96 -105 69z"/>
<path d="M1250 2158 c-24 -10 -25 -13 -25 -102 0 -71 -4 -98 -18 -119 -35 -53
-63 -21 -74 85 l-6 59 -40 -38 c-55 -53 -121 -157 -148 -234 -31 -89 -38 -259
-14 -366 17 -74 67 -198 97 -237 14 -18 17 -17 69 20 100 73 133 90 281 148
156 61 218 98 243 145 8 16 17 67 21 113 l6 83 -38 25 c-93 61 -213 209 -285
353 -22 42 -40 77 -42 76 -1 -1 -13 -6 -27 -11z"/>
<path d="M1782 1983 l27 -26 60 17 c65 18 119 15 159 -11 21 -13 25 -12 52 9
16 13 29 26 29 31 1 4 -79 7 -176 7 l-178 0 27 -27z"/>
<path d="M897 1061 c-87 -91 -139 -166 -197 -285 -58 -117 -117 -293 -107
-319 3 -9 299 -200 374 -241 6 -3 447 -6 980 -6 l968 0 182 122 c110 74 182
129 183 139 0 37 -54 197 -99 292 -51 107 -114 201 -194 286 l-48 52 -107 -35
c-466 -150 -887 -185 -1337 -110 -133 22 -322 70 -446 113 l-108 37 -44 -45z"/>
</g>
</svg>
