<?xml version="1.0" standalone="no"?>
<!DOCTYPE svg PUBLIC "-//W3C//DTD SVG 20010904//EN"
 "http://www.w3.org/TR/2001/REC-SVG-20010904/DTD/svg10.dtd">
<svg version="1.0" xmlns="http://www.w3.org/2000/svg"
 width="376.000000pt" height="441.000000pt" viewBox="0 0 376.000000 441.000000"
 preserveAspectRatio="xMidYMid meet">

<g transform="translate(0.000000,441.000000) scale(0.100000,-0.100000)"
fill="#000000" stroke="none">
<path d="M1075 4160 c-68 -21 -131 -98 -149 -182 -6 -25 -9 -26 -32 -18 -34
13 -106 13 -141 -1 -35 -13 -80 -55 -100 -93 -22 -43 -20 -128 6 -171 11 -20
21 -38 21 -39 0 -2 -14 -6 -32 -10 -143 -29 -218 -193 -145 -319 31 -53 96
-96 156 -104 l39 -5 0 -57 c0 -31 5 -68 10 -82 26 -66 120 -138 180 -139 20 0
13 -10 -46 -67 -509 -499 -597 -1276 -214 -1875 20 -32 39 -58 42 -58 3 0 25
29 48 64 56 86 178 215 276 293 44 34 81 61 83 60 1 -2 -15 -75 -37 -163 -71
-286 -120 -612 -120 -796 l0 -88 965 0 965 0 0 63 c0 141 -62 550 -128 842
-17 72 -28 132 -26 134 19 20 287 -238 354 -341 24 -38 47 -68 50 -68 4 0 34
46 68 103 352 587 255 1342 -235 1824 -35 34 -63 64 -63 66 0 2 18 9 40 16 90
27 150 111 150 211 0 59 1 60 28 60 63 1 152 64 178 126 18 42 18 135 1 177
-19 45 -88 104 -139 118 -24 7 -44 13 -45 14 -2 1 6 19 17 40 23 46 26 121 6
168 -18 44 -78 95 -120 103 -39 7 -112 2 -138 -10 -15 -7 -18 -3 -18 20 0 70
-73 160 -149 183 -106 31 -234 -20 -271 -109 -14 -35 -16 -35 -63 -15 -113 47
-256 -23 -297 -145 -15 -42 -23 -54 -37 -52 -33 5 -248 1 -270 -5 -19 -4 -23
-1 -23 18 0 38 -39 107 -81 142 -66 57 -152 72 -231 40 -32 -13 -43 -14 -46
-4 -10 31 -71 96 -106 115 -44 22 -134 30 -181 16z m303 -439 c10 -6 5 -14
-20 -29 -48 -30 -129 -118 -176 -190 -22 -34 -42 -58 -46 -55 -12 12 -6 124 8
156 25 55 65 92 123 113 44 15 92 18 111 5z m1135 -23 c25 -14 53 -42 72 -72
25 -41 30 -60 30 -112 0 -57 -12 -95 -22 -68 -24 68 -183 264 -214 264 -5 0
-9 5 -9 11 0 19 96 3 143 -23z m-128 -582 c15 -22 14 -27 -6 -65 -35 -68 -12
-130 54 -146 43 -11 56 -38 50 -102 l-6 -56 47 -41 c58 -51 70 -92 62 -226
l-6 -95 36 73 c20 40 44 108 54 150 l17 77 46 -1 c137 -1 170 -205 50 -315
-44 -41 -92 -61 -160 -67 -36 -3 -63 -9 -63 -16 0 -6 -20 -50 -44 -97 -71
-142 -177 -272 -295 -361 l-44 -34 2 -69 c1 -38 9 -81 17 -96 18 -36 96 -81
256 -150 l127 -54 -4 -35 c-3 -19 -12 -114 -21 -210 -14 -156 -36 -298 -49
-320 -8 -13 -93 -38 -175 -52 -115 -20 -722 -16 -867 5 -145 21 -193 35 -203
62 -10 27 -28 223 -36 411 l-7 151 99 38 c229 88 256 115 267 273 4 53 4 53
-42 86 -111 82 -213 211 -295 374 -45 90 -47 92 -82 92 -101 0 -183 51 -228
142 -40 79 -31 160 23 212 33 32 108 48 115 25 53 -170 71 -221 92 -254 l25
-40 -6 95 c-9 133 2 175 61 226 l47 41 -6 60 c-7 66 2 83 53 98 64 19 85 79
51 145 -17 33 -19 44 -9 65 6 14 22 28 35 31 25 7 26 6 139 -25 210 -58 584
-47 744 22 39 17 61 10 85 -27z"/>
<path d="M1512 2873 c-25 -5 -109 -80 -99 -89 3 -3 32 4 64 16 64 24 107 21
159 -11 26 -16 34 -17 48 -6 62 45 -64 111 -172 90z"/>
<path d="M2120 2858 c-49 -25 -62 -54 -34 -75 14 -11 22 -10 48 6 52 32 97 35
154 11 67 -29 82 -23 46 19 -53 63 -136 78 -214 39z"/>
<path d="M1520 2640 c-30 -30 -27 -83 6 -109 35 -28 69 -26 99 4 50 49 19 125
-50 125 -22 0 -43 -8 -55 -20z"/>
<path d="M2142 2640 c-44 -42 -9 -130 51 -130 40 0 77 36 77 76 0 67 -79 100
-128 54z"/>
<path d="M1711 2103 c0 -5 13 -18 29 -31 28 -22 31 -22 59 -7 39 19 133 19
172 0 27 -14 31 -14 54 2 54 40 44 43 -140 43 -96 0 -175 -3 -174 -7z"/>
</g>
</svg>
